<?xml version="1.0" encoding="utf-8"?>
<!-- Generator: Adobe Illustrator 21.1.0, SVG Export Plug-In . SVG Version: 6.00 Build 0)  -->
<svg version="1.1" id="Layer_1" xmlns="http://www.w3.org/2000/svg" xmlns:xlink="http://www.w3.org/1999/xlink" x="0px" y="0px"
	 viewBox="0 0 21 21" style="enable-background:new 0 0 21 21;" xml:space="preserve">
<style type="text/css">
	.st0{fill:#B0C700;}
	.st1{fill:#FFFFFF;}
</style>
<g>
	<path class="st0" d="M21,10.5C21,16.3,16.3,21,10.5,21S0,16.3,0,10.5S4.7,0,10.5,0S21,4.7,21,10.5z"/>
	<g>
		<path class="st1" d="M7.1,15.3H5.8V6.5h1.3v4V15.3z"/>
		<path class="st1" d="M8.9,6.5h3.4c3.2,0,4.7,2.3,4.7,4.4c0,2.3-1.8,4.4-4.7,4.4H8.9V6.5z M10.2,14.1h2c2.9,0,3.5-2.2,3.5-3.3
			c0-1.8-1.1-3.3-3.6-3.3h-1.9L10.2,14.1L10.2,14.1z"/>
		<path class="st1" d="M7.3,4.7c0,0.5-0.4,0.8-0.8,0.8S5.6,5.1,5.6,4.7c0-0.5,0.4-0.8,0.8-0.8C6.9,3.8,7.3,4.2,7.3,4.7z"/>
	</g>
</g>
</svg>
